<svg xmlns="http://www.w3.org/2000/svg" width="160" height="160" viewBox="0 0 80 80" role="img" aria-label="Pill" preserveAspectRatio="xMidYMid meet">
  <defs>
    <!-- Main body gradient -->
    <linearGradient id="pillGrad" x1="8" y1="40" x2="72" y2="40" gradientUnits="userSpaceOnUse">
      <stop offset="0%" stop-color="#6fc9ff"/>
      <stop offset="45%" stop-color="#3fa5f4"/>
      <stop offset="55%" stop-color="#2f92e9"/>
      <stop offset="100%" stop-color="#1f6fca"/>
    </linearGradient>
    <!-- Edge vignette -->
    <radialGradient id="edgeVignette" cx="50%" cy="50%" r="50%">
      <stop offset="65%" stop-color="rgba(0,0,0,0)"/>
      <stop offset="100%" stop-color="rgba(0,0,0,0.18)"/>
    </radialGradient>
    <!-- Shine gradient -->
    <linearGradient id="shine" x1="0%" y1="0%" x2="0%" y2="100%">
      <stop offset="0%" stop-color="rgba(255,255,255,0.9)"/>
      <stop offset="55%" stop-color="rgba(255,255,255,0.15)"/>
      <stop offset="100%" stop-color="rgba(255,255,255,0)"/>
    </linearGradient>
    <!-- Thin split line gradient -->
    <linearGradient id="split" x1="0%" y1="0%" x2="0%" y2="100%">
      <stop offset="0%" stop-color="rgba(255,255,255,0.85)"/>
      <stop offset="50%" stop-color="rgba(255,255,255,0.35)"/>
      <stop offset="100%" stop-color="rgba(255,255,255,0.1)"/>
    </linearGradient>
    <!-- Soft shadow -->
    <filter id="shadow" x="-20%" y="-20%" width="140%" height="140%" color-interpolation-filters="sRGB">
      <feDropShadow dx="0" dy="3" stdDeviation="4" flood-color="#0b2d4d" flood-opacity="0.35"/>
    </filter>
    <!-- Clip for highlights -->
    <clipPath id="pillShape">
      <rect x="8" y="24" width="64" height="32" rx="16" ry="16"/>
    </clipPath>
  </defs>

  <!-- Shadow (apply after rotation for crisp edge) -->
  <g transform="rotate(45 40 40)" filter="url(#shadow)">
    <!-- Base pill -->
    <rect x="8" y="24" width="64" height="32" rx="16" ry="16" fill="url(#pillGrad)"/>
    <!-- Subtle edge vignette overlay -->
    <rect x="8" y="24" width="64" height="32" rx="16" ry="16" fill="url(#edgeVignette)" style="mix-blend-mode:multiply" opacity="0.55"/>
    <!-- Split line -->
    <rect x="39.5" y="26" width="1" height="28" fill="url(#split)"/>
    <!-- Highlights -->
    <g clip-path="url(#pillShape)">
      <!-- Broad top shine -->
      <ellipse cx="32" cy="26" rx="48" ry="18" fill="url(#shine)" transform="rotate(-12 32 26)"/>
      <!-- Specular streak -->
      <path d="M18 30 Q32 22 50 28 Q32 24 18 30 Z" fill="rgba(255,255,255,0.35)"/>
      <path d="M20 31 Q32 25 48 30" stroke="rgba(255,255,255,0.55)" stroke-width="1.2" stroke-linecap="round" fill="none" opacity="0.55"/>
    </g>
    <!-- Outline -->
    <rect x="8" y="24" width="64" height="32" rx="16" ry="16" fill="none" stroke="#0e4e86" stroke-width="1"/>
    <!-- Inner stroke for definition -->
    <rect x="9" y="25" width="62" height="30" rx="15" ry="15" fill="none" stroke="rgba(255,255,255,0.35)" stroke-width="0.8"/>
  </g>
</svg>